<svg width="174" height="45" viewBox="0 0 174 45" fill="none" xmlns="http://www.w3.org/2000/svg">
<path d="M20.7499 16.9509C20.7499 14.3425 20.1136 13.5062 18.1669 12.6032L11.6533 9.52707L11.6533 3.70773L18.3915 6.95187C20.1509 7.78787 21.3492 8.55692 21.9482 10.5632L22.5468 10.5632C23.1458 8.55689 24.3441 7.78788 26.1035 6.95187L32.8417 3.70773L32.8417 9.52707L26.3281 12.6032C24.3814 13.5062 23.7451 14.3425 23.7451 16.9509L20.7499 16.9509Z" fill="#334155"/>
<path d="M27.5447 20.7504C30.1532 20.7504 30.9895 20.1141 31.8924 18.1674L34.9686 11.6537H40.7879L37.5438 18.392C36.7078 20.1514 35.9387 21.3497 33.9324 21.9487V22.5473C35.9387 23.1463 36.7078 24.3445 37.5438 26.1039L40.7879 32.8422H34.9686L31.8924 26.3286C30.9895 24.3819 30.1532 23.7455 27.5447 23.7455V20.7504Z" fill="#334155"/>
<path d="M16.9504 23.7457C14.3419 23.7457 13.5056 24.3821 12.6027 26.3287L9.52655 32.8424L3.70721 32.8424L6.95136 26.1041C7.78736 24.3447 8.55639 23.1465 10.5627 22.5475L10.5627 21.9488C8.55638 21.3498 7.78736 20.1516 6.95136 18.3922L3.70722 11.6539L9.52655 11.6539L12.6027 18.1676C13.5056 20.1143 14.3419 20.7506 16.9504 20.7506L16.9504 23.7457Z" fill="#334155"/>
<path d="M23.7452 27.5452C23.7452 30.1537 24.3815 30.99 26.3282 31.8929L32.8419 34.9691L32.8419 40.7884L26.1036 37.5443C24.3442 36.7083 23.1459 35.9392 22.5469 33.9329L21.9483 33.9329C21.3493 35.9392 20.1511 36.7083 18.3917 37.5443L11.6534 40.7884L11.6534 34.9691L18.1671 31.8929C20.1137 30.99 20.7501 30.1537 20.7501 27.5452L23.7452 27.5452Z" fill="#334155"/>
<ellipse cx="2.78101" cy="22.248" rx="2.78101" ry="2.78101" fill="#334155"/>
<ellipse cx="41.7151" cy="22.248" rx="2.78101" ry="2.78101" fill="#334155"/>
<ellipse cx="22.2481" cy="2.78101" rx="2.78101" ry="2.78101" transform="rotate(90 22.2481 2.78101)" fill="#334155"/>
<ellipse cx="22.2481" cy="41.7151" rx="2.78101" ry="2.78101" transform="rotate(90 22.2481 41.7151)" fill="#334155"/>
<path d="M145.356 34.3256H139.886V10.1705H153.378C159.395 10.1705 162.822 12.8024 162.822 17.4171C162.822 21.3468 160.525 23.6902 155.931 24.1228V24.4112C158.118 24.988 158.957 26.1417 159.869 27.8362L163.406 34.3256H157.061L153.706 28.0525C152.722 26.1778 151.81 25.5649 148.966 25.5649H145.356V34.3256ZM145.356 15.0376V21.491H153.342C155.931 21.491 157.097 20.7699 157.097 18.2463C157.097 15.8668 155.931 15.0376 153.342 15.0376H145.356Z" fill="#334155"/>
<path d="M113.425 34.3256H107.256L118.016 10.1705H125.875L136.708 34.3256H130.392L128.078 28.9898H115.776L113.425 34.3256ZM120.219 18.8592L117.906 24.1228H125.948L123.634 18.8592L122.129 15.1097H121.725L120.219 18.8592Z" fill="#334155"/>
<path d="M93.7279 34.7493C85.6065 34.7493 80.5581 29.8213 80.5581 22.2481C80.5581 14.6748 85.6065 9.74677 93.7279 9.74677C102.032 9.74677 107.044 14.6748 107.044 22.2481C107.044 29.8213 102.032 34.7493 93.7279 34.7493ZM93.7279 29.5314C99.1055 29.5314 101.191 27.6472 101.191 22.2481C101.191 16.8489 99.1055 14.9647 93.7279 14.9647C88.3502 14.9647 86.3748 16.8489 86.3748 22.2481C86.3748 27.6472 88.3502 29.5314 93.7279 29.5314Z" fill="#334155"/>
<path d="M66.2884 34.7493C58.8772 34.7493 54.7152 31.8505 54.7152 26.1977V25.9803H60.1915V26.6326C60.1915 28.8792 61.3232 29.7851 66.2884 29.7851C70.6694 29.7851 71.6917 29.1328 71.6917 27.5022C71.6917 26.0166 70.852 25.473 68.3329 25.0382L61.4693 24.0598C57.0882 23.3714 54.4961 21.1972 54.4961 17.2475C54.4961 13.5877 57.4898 9.74677 65.7043 9.74677C73.225 9.74677 76.7299 13.1891 76.7299 18.2984V18.5158H71.2171V18.0085C71.2171 15.6894 70.0123 14.711 65.1566 14.711C61.2137 14.711 60.0089 15.472 60.0089 17.0301C60.0089 18.4433 60.8121 18.9506 62.8566 19.313L69.7202 20.4C75.1965 21.2697 77.168 23.9149 77.168 27.2486C77.168 31.1983 74.0647 34.7493 66.2884 34.7493Z" fill="#334155"/>
</svg>
